<?xml version="1.0" encoding="utf-8"?>
<!-- Generator: Adobe Illustrator 26.1.0, SVG Export Plug-In . SVG Version: 6.00 Build 0)  -->
<svg version="1.1" id="Layer_2" xmlns="http://www.w3.org/2000/svg" xmlns:xlink="http://www.w3.org/1999/xlink" x="0px" y="0px"
	 viewBox="0 0 800 261.06" style="enable-background:new 0 0 800 261.06;" xml:space="preserve">
<style type="text/css">
	.st0{fill:#231F20;}
	.st1{fill:#F15A29;}
	.st2{fill:#FFFFFF;}
	.st3{fill:#A7A9AC;}
</style>
<path class="st0" d="M7.69,8.26c2.33,0,783.1,0,783.1,0l-58.81,71.03l26.2,68.7l36.1,25.62L764,195.74l-50.07,54.15l-64.05,2.91
	l-10.9-11.44l24.82-35.47l-35.08,44.75l-65.66,0.39l-8.01-12.21c0,0,30.97-42.11,30.78-41.33c-0.2,0.78-32.34,40.75-32.34,40.75
	l-23.16,11.63l-65.47,0.78l-5.86-9.38c0,0,16.22-49.34,16.22-49.05s-27.55,57.45-27.55,57.45l-43.77,0.59l-12.65-23.15l-12.57,23.41
	l-128.75,0.1l-13.72-13.78l-11.47,13.88l-113.9,0.47l-69.78-68.28l-18.22-7.41l37.44-29.83l10.51-37.14l-3.2-23.63L5.72,8.26H7.69z"
	/>
<path class="st1" d="M57.58,177.16c1.19-0.66,26.68-25.23,26.68-25.23l9.25-67.63l-50.1-59.81l101.75,1.1l1.25,97.5l39.31-97.03
	l38.53-0.94l7.18,13.26l-51.48,137.91L57.58,177.16z"/>
<path class="st1" d="M228.73,26.29l17.67,18.87l-10.56,109.66l-16.22,22.33l155.17,0.62l-2.14-6.93l0.65-58.5
	c0,0-17.07,22.01-19.29,23.75c-2.23,1.73-67.16,0.87-67.16,0.87l1.17-15.71l43.34-0.26l10.45,4.34V84.48l-51.77,0.55
	c0,0,0.55-22,1.48-21.91c0.92,0.09,70.35,0.28,70.35,0.28s15.25,28.38,15.25,28.1c0-0.28,0-66.09,0-66.09L228.73,26.29z"/>
<polygon class="st1" points="406.21,25.41 406.21,177.78 457.13,178.85 455.15,105.33 493.79,177.78 559.57,177.78 538.37,163.19 
	498.15,96.61 566.31,25.41 503.89,25.41 453.36,79.57 452.57,25.41 "/>
<path class="st1" d="M739.33,156.39l-29.1-68.25l43.65-62.73H572.65l21.65,137.09l-9.25,16.35l78.12-1.79l-20.07-22.43l-2.95-11.61
	l42.7,0.2l14.96,34.04l63.17,0.59L739.33,156.39z M633.75,103.39l-8.08-39.3h24.61l16.53,39.3H633.75z"/>
<path class="st0" d="M729.89,35.12c-0.48,0-63.08,0-63.08,0l6.66,11.19h46.67L729.89,35.12z"/>
<path class="st0" d="M676.51,54.34c0.21,0,37.53,0,37.53,0s-6.29,8.07-6.49,8.07s-27.14,0.48-27.14,0.48L676.51,54.34z"/>
<polygon class="st2" points="77.01,170.75 91.56,155.81 92.53,140.1 186.25,139.13 174.22,169.39 "/>
<path class="st2" d="M240.24,148.36v7.99c0,0-11.45,14.33-9.94,14.4s135.89,1.38,135.89,1.38l-1.6-4.39l0.66-19.39H240.24z"/>
<polygon class="st2" points="410.46,150.29 410.46,171.28 449.28,171.28 449.28,149.62 "/>
<polygon class="st2" points="485.1,151.12 496.09,171.28 539.57,172.78 533.24,166.95 522.08,149.62 484.43,149.62 "/>
<polygon class="st2" points="593.72,173.36 650.99,172.09 639.71,159.39 637.03,150.36 596.83,150.36 599.23,161.86 "/>
<path class="st2" d="M691.34,152.34c0,0,5.5,19.18,8.32,19.47c2.82,0.28,50.22,1.55,50.22,1.55l-15.09-13.4l-7.19-7.62H691.34z"/>
<polygon class="st3" points="87.15,167.26 171.12,166.09 172.3,162.07 89.66,164.67 "/>
<path class="st3" d="M236.2,166.42c0,0,0.5-3.18,2.51-3.35c2.01-0.17,121.61,1.59,121.61,1.59l1,2.59L236.2,166.42z"/>
<path class="st3" d="M413.24,164.15c0.38,0.77,0,3.11,0,3.11h32.36v-2.1L413.24,164.15z"/>
<polygon class="st3" points="495.97,165.7 497.12,167.26 530.82,169.32 528.9,167.26 528.33,165.16 "/>
<polygon class="st3" points="599.95,167.24 598.22,171.04 644.37,169.32 639.01,166.06 "/>
<polygon class="st3" points="699.14,165.16 700.86,168.55 741.27,170.08 733.42,165.16 "/>
</svg>
